HIERARCHY
ROOT Hips
{
	OFFSET -0.001795 -0.223333 0.028219
	CHANNELS 6 Xposition Yposition Zposition Zrotation Yrotation Xrotation 
	JOINT LeftUpLeg
	{
		OFFSET 0.069520 -0.091406 -0.006815
		CHANNELS 3 Zrotation Yrotation Xrotation
		JOINT LeftLeg
		{
			OFFSET 0.034277 -0.375199 -0.004496
			CHANNELS 3 Zrotation Yrotation Xrotation
			JOINT LeftFoot
			{
				OFFSET -0.013596 -0.397961 -0.043693
				CHANNELS 3 Zrotation Yrotation Xrotation
				JOINT LeftToe
				{
					OFFSET 0.026358 -0.055791 0.119288
					CHANNELS 3 Zrotation Yrotation Xrotation
					End Site
					{
						OFFSET 0.000000 0.000000 0.000000
					}
				}
			}
		}
	}
	JOINT RightUpLeg
	{
		OFFSET -0.067670 -0.090522 -0.004320
		CHANNELS 3 Zrotation Yrotation Xrotation
		JOINT RightLeg
		{
			OFFSET -0.038290 -0.382569 -0.008850
			CHANNELS 3 Zrotation Yrotation Xrotation
			JOINT RightFoot
			{
				OFFSET 0.015774 -0.398415 -0.042312
				CHANNELS 3 Zrotation Yrotation Xrotation
				JOINT RightToe
				{
					OFFSET -0.025372 -0.048144 0.123348
					CHANNELS 3 Zrotation Yrotation Xrotation
					End Site
					{
						OFFSET 0.000000 0.000000 0.000000
					}
				}
			}
		}
	}
	JOINT Spine
	{
		OFFSET -0.002533 0.108963 -0.026696
		CHANNELS 3 Zrotation Yrotation Xrotation
		JOINT Spine1
		{
			OFFSET 0.005487 0.135180 0.001092
			CHANNELS 3 Zrotation Yrotation Xrotation
			JOINT Spine2
			{
				OFFSET 0.001457 0.052922 0.025425
				CHANNELS 3 Zrotation Yrotation Xrotation
				JOINT Neck
				{
					OFFSET -0.002778 0.213870 -0.042857
					CHANNELS 3 Zrotation Yrotation Xrotation
					JOINT Head
					{
						OFFSET 0.005152 0.064970 0.051349
						CHANNELS 3 Zrotation Yrotation Xrotation
						End Site
						{
							OFFSET 0.000000 0.000000 0.000000
						}
					}
				}
				JOINT LeftShoulder
				{
					OFFSET 0.078845 0.121749 -0.034090
					CHANNELS 3 Zrotation Yrotation Xrotation
					JOINT LeftArm
					{
						OFFSET 0.090977 0.030469 -0.008868
						CHANNELS 3 Zrotation Yrotation Xrotation
						JOINT LeftForeArm
						{
							OFFSET 0.259612 -0.012772 -0.027456
							CHANNELS 3 Zrotation Yrotation Xrotation
							JOINT LeftHand
							{
								OFFSET 0.249234 0.008986 -0.001171
								CHANNELS 3 Zrotation Yrotation Xrotation
								End Site
								{
									OFFSET 0.000000 0.000000 0.000000
								}
							}
						}
					}
				}
				JOINT RightShoulder
				{
					OFFSET -0.081759 0.118833 -0.038615
					CHANNELS 3 Zrotation Yrotation Xrotation
					JOINT RightArm
					{
						OFFSET -0.096012 0.032551 -0.009143
						CHANNELS 3 Zrotation Yrotation Xrotation
						JOINT RightForeArm
						{
							OFFSET -0.253742 -0.013329 -0.021401
							CHANNELS 3 Zrotation Yrotation Xrotation
							JOINT RightHand
							{
								OFFSET -0.255298 0.007772 -0.005559
								CHANNELS 3 Zrotation Yrotation Xrotation
								End Site
								{
									OFFSET 0.000000 0.000000 0.000000
								}
							}
						}
					}
				}
			}
		}
	}
}
MOTION
Frames: 11
Frame Time: 0.050000
0.000000 1.030343 0.000000 -17.620118 18.051650 -25.913842 13.304937 -1.912447 13.445105 -0.766490 -0.555184 10.795160 -4.468959 4.849161 20.895787 0.000000 0.000000 0.000000 7.157440 2.082280 -71.059609 -11.215131 9.418277 89.575764 0.244052 6.858341 -9.902446 0.000000 0.000000 0.000000 -6.280971 -3.277665 38.808347 18.123059 -3.059513 -33.445766 -16.969731 -29.264071 33.508281 -4.996825 1.296959 -12.938002 0.000000 0.000000 0.000000 -24.639807 -18.308126 15.497777 -4.074548 -52.849297 -3.185584 46.776180 -24.256840 -8.492580 0.000000 0.000000 0.000000 7.266685 -11.691953 -6.241756 36.396957 -28.719121 -14.026769 1.562521 17.271066 0.390948 0.000000 0.000000 0.000000 
0.004203 1.060279 0.021313 -17.852559 20.981818 -26.425496 12.617320 -2.589978 17.402349 -1.358693 -0.301587 8.309787 -6.151504 4.439090 24.095814 0.000000 0.000000 0.000000 10.842849 2.678855 -80.051975 -10.214148 10.073695 89.514512 0.670110 4.168822 -4.549287 0.000000 0.000000 0.000000 -5.692530 -3.838290 38.866231 19.178202 -3.015330 -35.422008 -23.109815 -38.929260 37.082078 -7.115540 0.645955 -20.309914 0.000000 0.000000 0.000000 -30.528186 -17.840921 20.528478 11.189799 -51.726939 -9.380097 47.551702 -19.863090 -7.622621 0.000000 0.000000 0.000000 0.368469 -15.321617 -5.195267 31.541811 -25.490905 -11.538823 -1.066055 12.870647 -0.145375 0.000000 0.000000 0.000000 
0.009165 1.077576 0.045629 -17.806883 18.791203 -27.611154 12.435853 -3.046101 22.017220 -1.024339 -0.242449 7.142473 -4.565494 6.512597 25.588124 0.000000 0.000000 0.000000 17.716765 9.694543 -83.232181 -8.343522 10.077851 94.105418 0.049411 2.158956 -3.845956 0.000000 0.000000 0.000000 -3.276369 -3.776838 35.980364 17.376576 -3.388224 -30.069075 -23.757199 -41.313580 34.432628 -8.591223 2.682060 -12.824769 0.000000 0.000000 0.000000 -25.281069 -21.161133 20.471985 1.252121 -48.132868 -4.991851 57.075063 -26.396374 -11.425721 0.000000 0.000000 0.000000 -4.482965 -15.202958 -2.753805 31.099208 -26.712541 -12.171121 0.251714 11.200645 -0.039022 0.000000 0.000000 0.000000 
0.017332 1.075868 0.068787 -16.512790 19.263759 -28.535499 11.298414 -3.483525 26.134695 -1.293101 -0.103832 5.377277 -4.237858 6.066262 23.555038 0.000000 0.000000 0.000000 22.205368 13.308417 -84.923135 -9.349360 11.950962 92.315936 1.706475 0.449738 7.301777 0.000000 0.000000 0.000000 -1.312229 -3.917808 34.196239 20.362093 -4.233816 -30.284311 -31.149215 -41.473303 33.857916 -5.138402 1.083872 -6.922794 0.000000 0.000000 0.000000 -25.614462 -19.420424 19.601445 -1.916768 -43.659054 -3.840148 58.010710 -32.607327 -14.870670 0.000000 0.000000 0.000000 -2.706119 -18.149904 -4.392875 23.350191 -28.972279 -9.436024 1.408286 15.436377 -0.039980 0.000000 0.000000 0.000000 
0.029385 1.069523 0.089667 -15.388757 18.570933 -27.491488 9.993993 -3.520518 29.667115 -1.907590 0.087771 2.376573 -1.836627 9.226868 25.547272 0.000000 0.000000 0.000000 23.565392 15.259794 -85.090242 -9.561652 12.809871 92.119173 3.707517 -0.060463 17.574067 0.000000 0.000000 0.000000 0.661435 -3.928059 32.526717 19.334375 -3.597192 -32.026919 -33.162530 -42.370506 34.886209 -4.030653 0.719231 -3.417788 0.000000 0.000000 0.000000 -25.587722 -19.633237 20.169590 -5.133924 -38.494067 -3.099197 58.231471 -34.126619 -15.516437 0.000000 0.000000 0.000000 -3.115017 -20.247530 -4.982972 20.604297 -27.866539 -8.088493 1.547572 16.895290 -0.123731 0.000000 0.000000 0.000000 
0.042828 1.054662 0.106231 -12.183485 17.090736 -24.965997 5.890687 -1.830363 30.320598 -1.537951 0.041593 2.918158 -0.059166 10.353093 23.451354 0.000000 0.000000 0.000000 23.108602 15.887353 -81.452305 -11.361010 13.536385 87.537177 6.971803 0.846819 28.094884 0.000000 0.000000 0.000000 0.795067 -3.349746 30.873466 20.274551 -3.554718 -33.547079 -33.291343 -38.329558 32.970334 -2.975733 0.732427 -0.597881 0.000000 0.000000 0.000000 -24.193491 -17.398949 17.617922 -7.798737 -35.124109 -2.631218 56.135066 -33.843366 -14.098720 0.000000 0.000000 0.000000 -0.740769 -20.783643 -6.434416 17.904651 -27.500161 -6.678094 0.879311 17.321130 -0.111173 0.000000 0.000000 0.000000 
0.055824 1.030776 0.120426 -9.434308 17.242839 -21.741338 2.951725 -0.741024 29.569390 -2.343541 0.125505 2.866581 1.134290 11.157021 21.586386 0.000000 0.000000 0.000000 21.618460 13.866853 -74.712531 -13.139090 12.433577 79.778327 9.432188 2.449854 32.693457 0.000000 0.000000 0.000000 1.134507 -2.821918 27.889206 18.786751 -2.788797 -35.384417 -33.435699 -37.126985 34.987401 -2.316074 -0.077838 -0.785722 0.000000 0.000000 0.000000 -22.929412 -13.824999 14.901559 -9.231142 -31.946958 -2.608470 50.917444 -28.172286 -9.671143 0.000000 0.000000 0.000000 3.050203 -21.956859 -9.199977 16.524183 -24.057427 -5.225117 -2.530278 17.697882 -0.579006 0.000000 0.000000 0.000000 
0.068271 1.002933 0.137331 -7.336738 18.988460 -16.871086 1.519648 -0.278358 27.266697 -2.859509 0.169319 2.567597 2.874618 12.484295 18.304812 0.000000 0.000000 0.000000 18.790121 10.300938 -67.104680 -15.101426 10.803495 69.314802 12.248938 4.537420 36.859571 0.000000 0.000000 0.000000 0.380274 -2.203449 24.556061 18.925899 -2.317423 -38.043519 -32.678319 -35.120289 36.283221 -1.972700 -0.133468 0.771031 0.000000 0.000000 0.000000 -23.702968 -9.913604 12.556056 -9.442242 -29.175320 -2.894788 44.447880 -28.471481 -8.241876 0.000000 0.000000 0.000000 5.201249 -23.530914 -11.207406 17.282812 -18.795274 -4.318299 -5.493539 16.181354 -0.850570 0.000000 0.000000 0.000000 
0.081583 0.981195 0.161183 -5.972779 20.980412 -13.553318 -0.729407 0.202331 26.388720 -1.542907 0.038426 2.482454 1.342997 10.677571 18.236924 0.000000 0.000000 0.000000 14.092377 6.246678 -55.295130 -11.932499 5.178256 56.410964 10.311890 3.799853 35.228272 0.000000 0.000000 0.000000 -0.343589 -1.527151 20.092425 18.448083 -2.500310 -35.217316 -29.115664 -36.393105 33.854820 -2.834897 0.492892 -1.653281 0.000000 0.000000 0.000000 -21.656459 -5.941874 9.264607 -13.798466 -23.871664 -2.963133 35.646284 -29.732568 -6.083852 0.000000 0.000000 0.000000 5.416363 -23.025439 -11.146046 19.971633 -13.866411 -4.122989 -13.200979 18.433264 -2.403362 0.000000 0.000000 0.000000 
0.096348 0.966781 0.192664 -5.382252 24.914260 -9.258032 -1.167029 0.059804 24.588877 0.675362 -0.185839 2.620091 -1.300788 6.796349 15.808130 0.000000 0.000000 0.000000 10.094715 3.363411 -46.448148 -8.181229 1.472307 45.043221 8.330533 3.112429 33.960624 0.000000 0.000000 0.000000 -0.571145 -0.977777 15.099978 18.347809 -2.396153 -35.522816 -28.346375 -35.388344 34.875098 -2.444234 -0.026831 -4.253818 0.000000 0.000000 0.000000 -16.236418 -4.229166 5.675346 -20.662681 -18.174903 -3.059825 25.768134 -33.777265 -4.189984 0.000000 0.000000 0.000000 9.879566 -22.692658 -13.211957 18.631029 -8.276187 -2.845975 -20.720159 23.004838 -4.623517 0.000000 0.000000 0.000000 
0.112297 0.964016 0.231672 -4.196012 27.774069 -5.047736 -3.409863 0.434932 24.044934 4.134327 -0.398030 0.991150 -4.680468 4.374373 19.356332 0.000000 0.000000 0.000000 7.483177 2.132939 -38.779197 -3.694949 -1.020911 37.137642 4.183131 0.302365 30.179623 0.000000 0.000000 0.000000 -1.327984 -0.635857 12.338637 20.258732 -2.754434 -35.866772 -25.433190 -30.841871 30.512216 -2.311516 0.559274 -5.937304 0.000000 0.000000 0.000000 -12.940428 -1.431720 2.121909 -27.388989 -10.979959 -3.525144 18.598837 -37.784675 -2.961937 0.000000 0.000000 0.000000 11.767691 -20.327812 -12.060807 19.577069 -1.514475 -2.214092 -34.104874 24.945970 -7.900397 0.000000 0.000000 0.000000 
